<svg xmlns="http://www.w3.org/2000/svg" xmlns:xlink="http://www.w3.org/1999/xlink" version="1.1" x="0px" y="0px" viewBox="0 0 100 100" style="enable-background:new 0 0 100 100;" xml:space="preserve">
	<g>
		<path d="M24.4,53.4l9.8,5.3l37.6-22.6l2.3,4.2L57.8,50c1.4,1.2,2.4,3,2.4,5c0,1-0.2,2-0.7,2.8c0,0.6,0.3,2.5,2.3,4.2   c2.1,1.8,4.1,2,4.5,2H77v-1.5h1.5v-9H86v27.1h-7.5v-9H77v-3H66.1c0,0-4.2,0.3-7.4-2.5c-2.5-2.1-3.5-4.1-3.8-4.8   c-0.4,0.1-0.9,0.2-1.3,0.2c-3.2,0-5.8-2.2-6.4-5.2l-15.5,9.3L24.4,53.4z">
		</path>
		<polygon points="14,54.5 18,52.3 17.4,51.3 20.2,49.7 28,63.7 25.2,65.3 24.7,64.4 20.8,66.6  ">
		</polygon>
		<path d="M15.7,45.4l29-17.2l4.2,6.7l2.4-1.6l-4-6.7l2.1-1.2l4.1,6.5l2.5-1.6l-4-6.4l2-1.2l3.9,6.3l2.5-1.6l-3.9-6.2l1.8-1.1   c0,0,1.8-1,3.9-0.7c2.9,0.3,3.7,1.9,3.7,1.9l7.1,10.9L34.6,55.5L15.7,45.4z">
		</path>
	</g>
</svg>